<svg xmlns="http://www.w3.org/2000/svg" viewBox="0 0 512 512" width="512" height="512">
  <!-- Background & Outer Border -->
  <rect width="512" height="512" rx="100" fill="#0f172a"/>
  <rect x="24" y="24" width="464" height="464" rx="80" fill="none" stroke="#f59e0b" stroke-width="12"/>
  
  <!-- Clipboard / Checklist Icon -->
  <!-- Document Base -->
  <rect x="166" y="175" width="180" height="235" rx="16" fill="#1e293b" stroke="#f59e0b" stroke-width="12"/>
  
  <!-- Clipboard Clip -->
  <rect x="216" y="155" width="80" height="30" rx="8" fill="#f59e0b" />
  <circle cx="256" cy="170" r="6" fill="#0f172a" />
  
  <!-- List Items -->
  <!-- Item 1 -->
  <rect x="196" y="225" width="24" height="24" rx="6" fill="none" stroke="#38bdf8" stroke-width="6"/>
  <path d="M 201 237 L 206 243 L 216 231" fill="none" stroke="#38bdf8" stroke-width="4" stroke-linecap="round" stroke-linejoin="round"/>
  <line x1="244" y1="237" x2="300" y2="237" stroke="#f59e0b" stroke-width="12" stroke-linecap="round"/>
  
  <!-- Item 2 -->
  <rect x="196" y="280" width="24" height="24" rx="6" fill="none" stroke="#38bdf8" stroke-width="6"/>
  <path d="M 201 292 L 206 298 L 216 286" fill="none" stroke="#38bdf8" stroke-width="4" stroke-linecap="round" stroke-linejoin="round"/>
  <line x1="244" y1="292" x2="300" y2="292" stroke="#f59e0b" stroke-width="12" stroke-linecap="round"/>
  
  <!-- Item 3 -->
  <rect x="196" y="335" width="24" height="24" rx="6" fill="none" stroke="#38bdf8" stroke-width="6"/>
  <path d="M 201 347 L 206 353 L 216 341" fill="none" stroke="#38bdf8" stroke-width="4" stroke-linecap="round" stroke-linejoin="round"/>
  <line x1="244" y1="347" x2="280" y2="347" stroke="#f59e0b" stroke-width="12" stroke-linecap="round"/>
  
  <!-- Text Badges -->
  <text x="256" y="135" font-family="system-ui, -apple-system, sans-serif" font-weight="900" font-size="44" fill="#f8fafc" text-anchor="middle" letter-spacing="4">MACHINELINK</text>
  <text x="256" y="460" font-family="system-ui, -apple-system, sans-serif" font-weight="700" font-size="28" fill="#f59e0b" text-anchor="middle" letter-spacing="2">SAFETY PRESTARTS</text>
</svg>
